<mxfile host="app.diagrams.net" agent="Mozilla/5.0 (Windows NT 10.0; Win64; x64) AppleWebKit/537.36 (KHTML, like Gecko) Chrome/138.0.0.0 Safari/537.36" version="27.1.1">
  <diagram name="Page-1" id="aPtW2VAOXzW-rNcOlyPA">
    <mxGraphModel dx="1426" dy="749" grid="1" gridSize="10" guides="1" tooltips="1" connect="1" arrows="1" fold="1" page="1" pageScale="1" pageWidth="827" pageHeight="1169" math="0" shadow="0">
      <root>
        <mxCell id="0" />
        <mxCell id="1" parent="0" />
        <mxCell id="1v8QWyQAG8msriPtys0s-6" value="FlexNetwork" style="swimlane;" parent="1" vertex="1">
          <mxGeometry x="55" y="180" width="410" height="440" as="geometry" />
        </mxCell>
        <mxCell id="1v8QWyQAG8msriPtys0s-7" value="&lt;b&gt;Gym Network&lt;/b&gt; &lt;font style=&quot;font-size: 6px;&quot;&gt;(REVL Unley, Studio360, Studio Sprint)&lt;/font&gt;" style="rounded=1;whiteSpace=wrap;html=1;" parent="1v8QWyQAG8msriPtys0s-6" vertex="1">
          <mxGeometry x="60" y="190" width="120" height="60" as="geometry" />
        </mxCell>
        <mxCell id="1v8QWyQAG8msriPtys0s-18" value="" style="edgeStyle=orthogonalEdgeStyle;rounded=0;orthogonalLoop=1;jettySize=auto;html=1;" parent="1v8QWyQAG8msriPtys0s-6" source="1v8QWyQAG8msriPtys0s-10" target="1v8QWyQAG8msriPtys0s-7" edge="1">
          <mxGeometry relative="1" as="geometry" />
        </mxCell>
        <mxCell id="1v8QWyQAG8msriPtys0s-10" value="Login" style="whiteSpace=wrap;html=1;verticalAlign=top;" parent="1v8QWyQAG8msriPtys0s-6" vertex="1">
          <mxGeometry x="60" y="60" width="120" height="60" as="geometry" />
        </mxCell>
        <mxCell id="1v8QWyQAG8msriPtys0s-11" value="" style="edgeStyle=orthogonalEdgeStyle;rounded=0;orthogonalLoop=1;jettySize=auto;html=1;" parent="1" source="1v8QWyQAG8msriPtys0s-8" target="1v8QWyQAG8msriPtys0s-10" edge="1">
          <mxGeometry relative="1" as="geometry" />
        </mxCell>
        <mxCell id="1v8QWyQAG8msriPtys0s-8" value="Actor" style="shape=umlActor;verticalLabelPosition=bottom;verticalAlign=top;html=1;outlineConnect=0;" parent="1" vertex="1">
          <mxGeometry x="100" y="40" width="30" height="60" as="geometry" />
        </mxCell>
        <mxCell id="1v8QWyQAG8msriPtys0s-13" value="Hapana" style="whiteSpace=wrap;html=1;rounded=1;" parent="1" vertex="1">
          <mxGeometry x="540" y="490" width="145" height="60" as="geometry" />
        </mxCell>
        <mxCell id="1v8QWyQAG8msriPtys0s-14" value="" style="edgeStyle=orthogonalEdgeStyle;rounded=0;orthogonalLoop=1;jettySize=auto;html=1;" parent="1" source="1v8QWyQAG8msriPtys0s-7" target="1v8QWyQAG8msriPtys0s-13" edge="1">
          <mxGeometry relative="1" as="geometry" />
        </mxCell>
        <mxCell id="1v8QWyQAG8msriPtys0s-16" value="Mindbody" style="whiteSpace=wrap;html=1;rounded=1;" parent="1" vertex="1">
          <mxGeometry x="500" y="260" width="120" height="60" as="geometry" />
        </mxCell>
        <mxCell id="1v8QWyQAG8msriPtys0s-17" value="Book a class" style="edgeStyle=orthogonalEdgeStyle;rounded=0;orthogonalLoop=1;jettySize=auto;html=1;" parent="1" source="1v8QWyQAG8msriPtys0s-7" target="1v8QWyQAG8msriPtys0s-16" edge="1">
          <mxGeometry relative="1" as="geometry" />
        </mxCell>
        <mxCell id="wQWC3BB9ZApEHlGTzYCg-1" value="Gyms Home Page" style="whiteSpace=wrap;html=1;rounded=1;" vertex="1" parent="1">
          <mxGeometry x="115" y="670" width="120" height="60" as="geometry" />
        </mxCell>
        <mxCell id="wQWC3BB9ZApEHlGTzYCg-2" value="" style="edgeStyle=orthogonalEdgeStyle;rounded=0;orthogonalLoop=1;jettySize=auto;html=1;" edge="1" parent="1" source="1v8QWyQAG8msriPtys0s-7" target="wQWC3BB9ZApEHlGTzYCg-1">
          <mxGeometry relative="1" as="geometry" />
        </mxCell>
        <mxCell id="wQWC3BB9ZApEHlGTzYCg-3" value="Get classes by HTML scrape" style="edgeLabel;html=1;align=center;verticalAlign=middle;resizable=0;points=[];" vertex="1" connectable="0" parent="wQWC3BB9ZApEHlGTzYCg-2">
          <mxGeometry x="-0.363" y="3" relative="1" as="geometry">
            <mxPoint as="offset" />
          </mxGeometry>
        </mxCell>
      </root>
    </mxGraphModel>
  </diagram>
</mxfile>
